<svg xmlns="http://www.w3.org/2000/svg" width="256" height="256" fill="none"><path fill="#377D57" fill-rule="evenodd" d="M233.309 128.302a47.726 47.726 0 0 0-25.874-31.774 39.46 39.46 0 0 0-17.04-3.43 1.07 1.07 0 0 1-.746-.246l-.031-.028-.022-.02a1.094 1.094 0 0 1-.185-.234 1.075 1.075 0 0 1 .024-1.118 39.136 39.136 0 0 0 5.487-16.463 47.766 47.766 0 0 0-14.569-38.414 43.91 43.91 0 0 0-17.972-10.783c-11.799-3.54-21.1-1.729-26.149 5.076a24.699 24.699 0 0 0-4.418 13.72 22.882 22.882 0 0 0 3.622 14.761 17.396 17.396 0 0 0 12.073 7.052 17.069 17.069 0 0 0 13.143-4.253 16.63 16.63 0 0 0 5.488-11.99 4.749 4.749 0 0 0-3.979-4.857 4.523 4.523 0 0 0-4.54 2.357 4.537 4.537 0 0 0-.536 2.143 7.464 7.464 0 0 1-2.552 5.488 7.892 7.892 0 0 1-6.091 2.002 8.233 8.233 0 0 1-5.68-3.32 14.158 14.158 0 0 1-1.975-9.027 16.058 16.058 0 0 1 2.743-8.808c3.54-4.746 11.717-3.182 16.271-1.81a34.878 34.878 0 0 1 14.241 8.588 39.066 39.066 0 0 1 11.881 30.923 33.505 33.505 0 0 1-17.369 25.243l-.219.165-1.18.686a2.746 2.746 0 0 1-3.567-.714 45.521 45.521 0 0 0-71.34 0 2.743 2.743 0 0 1-3.54.714l-1.18-.686-.219-.165a33.56 33.56 0 0 1-17.368-25.243 39.264 39.264 0 0 1 11.88-30.923 34.96 34.96 0 0 1 14.268-8.589c4.555-1.371 12.732-2.963 16.271 1.811a15.962 15.962 0 0 1 2.744 8.808 14.318 14.318 0 0 1-1.948 9.027 9.131 9.131 0 0 1-.447.56 8.224 8.224 0 0 1-5.232 2.761 7.84 7.84 0 0 1-4.668-.957 7.841 7.841 0 0 1-1.451-1.046 7.469 7.469 0 0 1-2.552-5.488 4.527 4.527 0 0 0-5.076-4.5 4.747 4.747 0 0 0-3.979 4.856 16.659 16.659 0 0 0 5.488 11.99 17.007 17.007 0 0 0 13.143 4.254 17.345 17.345 0 0 0 12.155-6.915 22.774 22.774 0 0 0 3.65-14.734 25.06 25.06 0 0 0-4.418-13.72c-5.076-6.804-14.351-8.615-26.149-5.076A43.74 43.74 0 0 0 75.648 36.74a47.685 47.685 0 0 0-14.57 38.414 39.093 39.093 0 0 0 5.488 16.463 1.068 1.068 0 0 1-.394 1.52c-.173.094-.37.137-.566.126a39.426 39.426 0 0 0-17.012 3.43 47.822 47.822 0 0 0-25.902 31.774 44.148 44.148 0 0 0-.357 20.962c2.744 11.991 9.055 19.207 17.478 20.085.209.015.417.027.625.033l.24.006.25.002c.369 0 .739-.013 1.108-.041a26.294 26.294 0 0 0 11.908-3.182 22.642 22.642 0 0 0 10.975-10.509 17.32 17.32 0 0 0 0-13.967 16.982 16.982 0 0 0-10.261-9.273 16.741 16.741 0 0 0-13.143 1.179 4.745 4.745 0 0 0-2.223 5.899 4.532 4.532 0 0 0 2.73 2.512 4.531 4.531 0 0 0 3.69-.371 7.433 7.433 0 0 1 6.12-.604 7.903 7.903 0 0 1 4.774 4.308c.123.284.23.574.32.869l.05.164a8.225 8.225 0 0 1-.37 5.524 14.05 14.05 0 0 1-6.833 6.202 15.808 15.808 0 0 1-8.944 2.14c-5.9-.686-8.616-8.561-9.714-13.198a34.879 34.879 0 0 1 .33-16.628 39.013 39.013 0 0 1 20.853-25.765 33.54 33.54 0 0 1 30.512 2.415l1.426.823a2.74 2.74 0 0 1 1.222 1.498 2.747 2.747 0 0 1-.07 1.932 45.632 45.632 0 0 0 18.324 55.291 45.63 45.63 0 0 0 19.761 6.72v3.183a4.191 4.191 0 0 0 0 .823 33.456 33.456 0 0 1-13.17 27.658 39.208 39.208 0 0 1-32.762 5.24 35.058 35.058 0 0 1-14.624-8.231c-3.485-3.265-8.945-9.576-6.586-15.009a15.86 15.86 0 0 1 6.311-6.695 14.19 14.19 0 0 1 8.78-2.744 8.232 8.232 0 0 1 5.735 3.238 7.962 7.962 0 0 1 1.317 6.283 7.552 7.552 0 0 1-3.567 5.022 4.498 4.498 0 0 0-1.152 6.887 4.748 4.748 0 0 0 6.009.741 16.638 16.638 0 0 0 7.572-10.784 16.981 16.981 0 0 0-2.88-13.5 17.426 17.426 0 0 0-12.156-6.914 22.578 22.578 0 0 0-14.57 4.226 24.521 24.521 0 0 0-9.712 10.701c-3.375 7.792-.275 16.737 8.67 25.188a43.71 43.71 0 0 0 18.329 10.152 49.615 49.615 0 0 0 13.5 1.866 46.285 46.285 0 0 0 26.971-8.396 38.877 38.877 0 0 0 11.47-13.061.809.809 0 0 1 .05-.079l.029-.039.032-.041.035-.041a1.135 1.135 0 0 1 1.39-.211 1.112 1.112 0 0 1 .412.411 38.966 38.966 0 0 0 11.496 13.061 46.147 46.147 0 0 0 26.945 8.396 49.374 49.374 0 0 0 13.5-1.866 43.707 43.707 0 0 0 18.328-10.152c8.973-8.451 12.046-17.396 8.671-25.188a24.693 24.693 0 0 0-9.686-10.701 22.718 22.718 0 0 0-14.597-4.226 17.311 17.311 0 0 0-12.128 6.914 16.897 16.897 0 0 0-2.884 6.442 16.892 16.892 0 0 0 .003 7.058 16.478 16.478 0 0 0 7.573 10.784c.477.305 1.001.52 1.547.638.289.063.585.099.883.108a4.75 4.75 0 0 0 3.579-1.487 4.54 4.54 0 0 0 1.089-2.747 4.618 4.618 0 0 0-.058-.966 4.531 4.531 0 0 0-.739-1.83 4.548 4.548 0 0 0-1.444-1.344 7.22 7.22 0 0 1-1.532-1.172 5.498 5.498 0 0 1-.184-.19c-.06-.065-.12-.13-.179-.198a7.361 7.361 0 0 1-1.672-3.462 7.842 7.842 0 0 1 1.317-6.283 8.226 8.226 0 0 1 5.707-3.238 14.105 14.105 0 0 1 8.78 2.744 15.951 15.951 0 0 1 6.339 6.695c2.332 5.488-3.128 11.744-6.585 15.009a35.19 35.19 0 0 1-14.57 8.04 39.21 39.21 0 0 1-32.734-5.186 33.581 33.581 0 0 1-13.171-27.631v-1.646a2.75 2.75 0 0 1 1.534-2.486 2.73 2.73 0 0 1 .853-.258 45.71 45.71 0 0 0 38.798-44.916 45.211 45.211 0 0 0-3.128-16.464 2.765 2.765 0 0 1-.187-.69 2.744 2.744 0 0 1 .964-2.477l.055-.045.054-.041.066-.048.043-.029c.052-.035.104-.068.157-.1l1.455-.85a33.578 33.578 0 0 1 30.539-2.415 39.12 39.12 0 0 1 20.825 25.765 34.87 34.87 0 0 1 .275 16.6c-1.097 4.637-3.814 12.512-9.686 13.198a15.831 15.831 0 0 1-8.972-2.14 14.053 14.053 0 0 1-6.833-6.201 8.24 8.24 0 0 1 0-6.558 7.899 7.899 0 0 1 4.775-4.308 7.542 7.542 0 0 1 5.735.385 4.94 4.94 0 0 0 3.682.586l.161-.04a4.943 4.943 0 0 0 2.248-1.315 4.501 4.501 0 0 0-1.18-6.859 16.687 16.687 0 0 0-13.445-1.372 16.92 16.92 0 0 0-10.234 9.137 17.308 17.308 0 0 0 0 13.966 22.711 22.711 0 0 0 10.975 10.508 24.47 24.47 0 0 0 14.131 3.046c8.396-.96 14.625-8.231 17.451-20.085a43.911 43.911 0 0 0-.302-20.935ZM128 91.37a36.551 36.551 0 0 1 27.027 11.963 2.745 2.745 0 0 1-.686 4.253l-23.597 13.719a5.473 5.473 0 0 1-2.744.735 5.505 5.505 0 0 1-2.744-.735l-23.596-13.719a2.744 2.744 0 0 1-.659-4.253A36.493 36.493 0 0 1 128 91.37Zm-36.63 36.713c.01-3.724.583-7.424 1.701-10.976a2.753 2.753 0 0 1 .619-1.053 2.75 2.75 0 0 1 2.223-.852c.411.033.81.16 1.164.368l23.652 13.72a5.491 5.491 0 0 1 2.744 4.747v27.273a2.677 2.677 0 0 1-.015.369l-.011.079a2.763 2.763 0 0 1-.504 1.242 2.77 2.77 0 0 1-1.207.93 2.72 2.72 0 0 1-1.611.124 36.685 36.685 0 0 1-28.755-35.971Zm73.26 0a36.651 36.651 0 0 1-28.727 35.669 2.752 2.752 0 0 1-2.325-.567 2.732 2.732 0 0 1-.747-.974 2.726 2.726 0 0 1-.248-1.203v-27.246a5.475 5.475 0 0 1 2.744-4.747l23.624-13.719a2.733 2.733 0 0 1 2.381-.186 2.747 2.747 0 0 1 1.625 1.75 36.621 36.621 0 0 1 1.673 11.223Z" clip-rule="evenodd"/><path fill="#377D57" d="M42.393 70.462A8.23 8.23 0 0 0 34.32 80.3a8.23 8.23 0 0 0 14.917 2.967 8.234 8.234 0 0 0-1.024-10.394 8.232 8.232 0 0 0-5.82-2.41ZM213.609 70.462a8.227 8.227 0 0 0-7.605 5.082 8.228 8.228 0 0 0 1.784 8.97 8.229 8.229 0 0 0 8.971 1.785 8.235 8.235 0 0 0 5.081-7.605 8.231 8.231 0 0 0-8.231-8.232ZM123.427 220.017a8.23 8.23 0 1 1 9.148 13.686 8.23 8.23 0 0 1-9.148-13.686Z"/><path fill="#377D57" fill-rule="evenodd" d="M128 0C57.308 0 0 57.308 0 128c0 70.692 57.308 128 128 128 70.692 0 128-57.308 128-128C256 57.308 198.692 0 128 0ZM9.055 128C9.055 62.308 62.308 9.055 128 9.055S246.945 62.308 246.945 128 193.692 246.945 128 246.945 9.055 193.692 9.055 128Z" clip-rule="evenodd"/></svg>